<svg width="1080" height="1080" viewBox="0 0 1080 1080" fill="none" xmlns="http://www.w3.org/2000/svg">
<path d="M608.519 545.991V276.733L375.334 142.104L142.15 276.733M375.334 680.62L142.15 545.991" stroke="#2C2C2C" stroke-width="42.8365"/>
<circle cx="375.334" cy="142.105" r="63.7447" fill="#2C2C2C" stroke="#2C2C2C" stroke-width="31.6174"/>
<circle cx="47.936" cy="47.936" r="63.7447" transform="matrix(-0.5 0.866025 0.866025 0.5 124.603 211.252)" fill="#2C2C2C" stroke="#2C2C2C" stroke-width="31.6174"/>
<circle cx="608.518" cy="276.734" r="63.7447" transform="rotate(60 608.518 276.734)" fill="#2C2C2C" stroke="#2C2C2C" stroke-width="31.6174"/>
<circle cx="375.334" cy="680.62" r="63.7447" fill="#2C2C2C" stroke="#2C2C2C" stroke-width="31.6174"/>
<circle cx="47.936" cy="47.936" r="63.7447" transform="matrix(-0.5 0.866025 0.866025 0.5 590.973 480.51)" fill="#2C2C2C" stroke="#2C2C2C" stroke-width="31.6174"/>
<circle cx="142.148" cy="545.992" r="63.7447" transform="rotate(60 142.148 545.992)" fill="#2C2C2C" stroke="#2C2C2C" stroke-width="31.6174"/>
<path d="M175.42 857.659C174.278 853.692 172.675 850.187 170.61 847.144C168.545 844.046 166.018 841.438 163.029 839.318C160.094 837.144 156.725 835.487 152.921 834.346C149.171 833.204 145.014 832.634 140.449 832.634C131.917 832.634 124.417 834.753 117.95 838.992C111.538 843.231 106.538 849.399 102.951 857.496C99.3645 865.539 97.5712 875.376 97.5712 887.005C97.5712 898.635 99.3374 908.526 102.87 916.678C106.402 924.829 111.402 931.052 117.869 935.345C124.336 939.584 131.971 941.703 140.775 941.703C148.764 941.703 155.584 940.29 161.236 937.464C166.942 934.584 171.289 930.535 174.278 925.318C177.322 920.101 178.843 913.933 178.843 906.814L186.017 907.874H142.976V881.299H212.836V902.331C212.836 917.004 209.738 929.612 203.543 940.154C197.348 950.643 188.816 958.74 177.947 964.446C167.078 970.098 154.633 972.924 140.612 972.924C124.961 972.924 111.212 969.473 99.3645 962.571C87.5174 955.615 78.2789 945.752 71.6489 932.981C65.0732 920.156 61.7853 904.939 61.7853 887.332C61.7853 873.8 63.7417 861.735 67.6545 851.138C71.6217 840.487 77.1648 831.465 84.2839 824.075C91.4031 816.684 99.6906 811.059 109.147 807.201C118.602 803.342 128.846 801.413 139.878 801.413C149.334 801.413 158.138 802.799 166.29 805.57C174.441 808.288 181.669 812.146 187.973 817.146C194.331 822.145 199.521 828.096 203.543 834.998C207.564 841.845 210.146 849.399 211.287 857.659H175.42ZM238.697 970.642V845.432H272.363V867.278H273.668C275.95 859.507 279.781 853.638 285.161 849.671C290.542 845.649 296.737 843.639 303.747 843.639C305.486 843.639 307.361 843.747 309.372 843.965C311.383 844.182 313.149 844.481 314.671 844.861V875.675C313.04 875.186 310.785 874.751 307.905 874.37C305.024 873.99 302.389 873.8 299.998 873.8C294.889 873.8 290.324 874.914 286.303 877.142C282.336 879.316 279.184 882.359 276.847 886.272C274.564 890.185 273.423 894.695 273.423 899.804V970.642H238.697ZM364.742 973.006C356.754 973.006 349.634 971.62 343.385 968.848C337.135 966.022 332.19 961.865 328.549 956.376C324.962 950.833 323.169 943.931 323.169 935.671C323.169 928.715 324.446 922.873 327 918.145C329.554 913.417 333.032 909.613 337.434 906.733C341.836 903.852 346.836 901.678 352.433 900.211C358.085 898.744 364.008 897.711 370.204 897.114C377.486 896.353 383.355 895.646 387.811 894.994C392.268 894.288 395.501 893.255 397.512 891.896C399.523 890.538 400.528 888.527 400.528 885.864V885.375C400.528 880.212 398.898 876.218 395.637 873.392C392.431 870.566 387.866 869.153 381.942 869.153C375.693 869.153 370.72 870.539 367.025 873.311C363.329 876.028 360.884 879.452 359.688 883.582L327.571 880.973C329.201 873.365 332.407 866.789 337.19 861.246C341.972 855.649 348.14 851.355 355.694 848.367C363.302 845.323 372.106 843.802 382.105 843.802C389.061 843.802 395.718 844.617 402.077 846.247C408.489 847.877 414.168 850.404 419.114 853.828C424.113 857.252 428.053 861.654 430.934 867.034C433.814 872.36 435.254 878.745 435.254 886.19V970.642H402.321V953.279H401.343C399.332 957.191 396.642 960.642 393.273 963.631C389.904 966.566 385.855 968.875 381.127 970.56C376.399 972.19 370.937 973.006 364.742 973.006ZM374.687 949.04C379.796 949.04 384.306 948.034 388.219 946.024C392.132 943.958 395.202 941.187 397.43 937.709C399.658 934.231 400.773 930.291 400.773 925.889V912.602C399.686 913.308 398.191 913.96 396.289 914.558C394.441 915.102 392.349 915.618 390.012 916.107C387.676 916.542 385.339 916.949 383.002 917.33C380.665 917.656 378.546 917.955 376.644 918.226C372.568 918.824 369.008 919.775 365.965 921.079C362.922 922.384 360.558 924.15 358.873 926.378C357.188 928.552 356.346 931.269 356.346 934.53C356.346 939.258 358.058 942.872 361.481 945.371C364.96 947.817 369.361 949.04 374.687 949.04ZM462.195 1017.6V845.432H496.432V866.463H497.981C499.503 863.094 501.704 859.67 504.584 856.192C507.519 852.66 511.323 849.725 515.996 847.388C520.724 844.997 526.594 843.802 533.604 843.802C542.734 843.802 551.157 846.193 558.874 850.975C566.591 855.703 572.759 862.849 577.378 872.414C581.998 881.924 584.307 893.853 584.307 908.2C584.307 922.166 582.052 933.959 577.541 943.578C573.085 953.143 566.999 960.398 559.282 965.343C551.619 970.234 543.033 972.68 533.522 972.68C526.784 972.68 521.05 971.565 516.322 969.337C511.649 967.109 507.818 964.31 504.829 960.941C501.84 957.517 499.557 954.067 497.981 950.588H496.921V1017.6H462.195ZM496.188 908.037C496.188 915.482 497.22 921.976 499.285 927.519C501.351 933.062 504.339 937.383 508.252 940.48C512.165 943.524 516.92 945.045 522.518 945.045C528.17 945.045 532.952 943.497 536.865 940.399C540.777 937.247 543.739 932.899 545.75 927.356C547.815 921.759 548.848 915.319 548.848 908.037C548.848 900.809 547.842 894.451 545.832 888.962C543.821 883.473 540.859 879.18 536.946 876.082C533.033 872.985 528.224 871.436 522.518 871.436C516.866 871.436 512.084 872.93 508.171 875.919C504.312 878.908 501.351 883.147 499.285 888.636C497.22 894.125 496.188 900.592 496.188 908.037ZM642.184 898.255V970.642H607.458V803.695H641.206V867.523H642.673C645.499 860.132 650.064 854.344 656.368 850.16C662.672 845.921 670.579 843.802 680.09 843.802C688.785 843.802 696.366 845.704 702.833 849.508C709.354 853.258 714.408 858.665 717.995 865.73C721.636 872.74 723.429 881.136 723.375 890.918V970.642H688.649V897.114C688.703 889.397 686.747 883.392 682.78 879.098C678.867 874.805 673.378 872.659 666.313 872.659C661.585 872.659 657.401 873.664 653.76 875.675C650.173 877.685 647.347 880.62 645.282 884.478C643.271 888.283 642.239 892.875 642.184 898.255ZM889.098 970.642V845.432H923.824V970.642H889.098ZM906.542 829.292C901.379 829.292 896.95 827.58 893.255 824.156C889.614 820.678 887.793 816.521 887.793 811.684C887.793 806.902 889.614 802.799 893.255 799.375C896.95 795.897 901.379 794.158 906.542 794.158C911.705 794.158 916.107 795.897 919.748 799.375C923.443 802.799 925.291 806.902 925.291 811.684C925.291 816.521 923.443 820.678 919.748 824.156C916.107 827.58 911.705 829.292 906.542 829.292ZM1018.24 845.432V871.517H942.837V845.432H1018.24ZM959.956 815.434H994.682V932.166C994.682 935.372 995.171 937.872 996.149 939.665C997.127 941.404 998.486 942.627 1000.23 943.334C1002.02 944.04 1004.08 944.393 1006.42 944.393C1008.05 944.393 1009.68 944.257 1011.31 943.986C1012.94 943.66 1014.19 943.415 1015.06 943.252L1020.52 969.093C1018.78 969.636 1016.34 970.261 1013.19 970.968C1010.03 971.728 1006.2 972.19 1001.69 972.353C993.323 972.68 985.987 971.565 979.683 969.011C973.433 966.457 968.569 962.49 965.091 957.11C961.613 951.73 959.902 944.937 959.956 936.731V815.434Z" fill="#2C2C2C"/>
<path d="M860.711 945.429V971.759H751.071V945.429H860.711Z" fill="#2C2C2C"/>
</svg>
