<?xml version="1.0" standalone="no"?>
<!DOCTYPE svg PUBLIC "-//W3C//DTD SVG 20010904//EN"
 "http://www.w3.org/TR/2001/REC-SVG-20010904/DTD/svg10.dtd">
<svg version="1.0" xmlns="http://www.w3.org/2000/svg"
 width="270.000000pt" height="270.000000pt" viewBox="0 0 270.000000 270.000000"
 preserveAspectRatio="xMidYMid meet">
<metadata>
Created by potrace 1.14, written by Peter Selinger 2001-2017
</metadata>
<g transform="translate(0.000000,270.000000) scale(0.100000,-0.100000)"
fill="#000000" stroke="none">
<path d="M1301 2528 c-120 -21 -206 -141 -194 -269 l4 -46 -178 -103 c-98 -57
-185 -108 -194 -113 -12 -8 -25 -3 -52 17 -123 94 -297 52 -370 -89 -27 -53
-28 -154 -2 -208 70 -147 256 -188 380 -83 60 49 86 109 88 199 l2 67 190 109
c174 101 192 108 210 95 106 -75 214 -80 310 -14 l41 28 195 -112 c126 -74
193 -118 190 -127 -26 -106 44 -247 144 -285 l45 -17 0 -226 0 -227 -36 -13
c-82 -30 -156 -132 -157 -217 -1 -70 23 -133 67 -179 53 -54 104 -77 175 -78
249 -2 341 322 129 456 -15 9 -34 17 -42 17 -8 0 -18 5 -22 12 -4 7 -8 111 -8
231 l-1 219 52 25 c65 32 117 96 133 163 53 221 -189 386 -378 259 l-45 -30
-121 69 c-66 39 -137 79 -156 89 -110 62 -105 56 -106 130 -2 78 -18 124 -63
176 -56 63 -141 91 -230 75z"/>
<path d="M465 1114 c-87 -30 -146 -93 -165 -180 -50 -222 203 -384 386 -247
17 13 33 23 37 23 3 0 83 -45 179 -100 95 -55 180 -104 188 -109 11 -6 15 -27
16 -79 1 -50 8 -83 24 -116 57 -119 205 -172 324 -116 186 88 186 356 -1 445
-77 37 -201 20 -262 -36 l-21 -20 -135 78 c-74 43 -143 83 -153 88 -111 63
-110 62 -102 99 25 110 -56 237 -173 271 -57 17 -93 16 -142 -1z"/>
</g>
</svg>
